<svg width="5080" height="200"><text x="0" y="13" fontSize="6" lengthAdjust="spacingAndGlyphs" textLength="80">2016-08-31</text><rect x='80' y='0' width='2' height='200' fill='#ff0000' /><rect x='5080.0' y='0' width='2' height='200' fill='#ff0000' /><rect x="2061.7166666666667" y="50" width="80.23304398148149" height="100" /><rect x="2151.786747685185" y="50" width="12.164351851851853" height="100" /><rect x="3499.8322916666666" y="50" width="7.851041666666667" height="100" /><rect x="3512.6121527777777" y="50" width="3.0611111111111113" height="100" /><rect x="2063.9519097222224" y="100" width="4.340219907407407" height="50" fill="#30F030" fill-opacity="0.4" /><rect x="2068.29212962963" y="100" width="0.3662037037037037" height="50" fill="#30F030" fill-opacity="0.4" /><rect x="2068.6583333333333" y="100" width="0.3759837962962963" height="50" fill="#30F030" fill-opacity="0.4" /><rect x="2069.03431712963" y="100" width="0.0646412037037037" height="50" fill="#30F030" fill-opacity="0.4" /><rect x="2069.0989583333335" y="100" width="0.11053240740740741" height="50" fill="#30F030" fill-opacity="0.4" /><rect x="2069.209490740741" y="100" width="0.623900462962963" height="50" fill="#30F030" fill-opacity="0.4" /><rect x="2069.8333912037037" y="100" width="0.06620370370370371" height="50" fill="#30F030" fill-opacity="0.4" /><rect x="2069.8995949074074" y="100" width="2.664178240740741" height="50" fill="#30F030" fill-opacity="0.4" /><rect x="2072.5637731481484" y="100" width="1.3203703703703704" height="50" fill="#30F030" fill-opacity="0.4" /><rect x="2073.8841435185186" y="100" width="0.04618055555555556" height="50" fill="#30F030" fill-opacity="0.4" /><rect x="2073.930324074074" y="100" width="0.0353587962962963" height="50" fill="#30F030" fill-opacity="0.4" /><rect x="2073.9656828703705" y="100" width="0.007928240740740741" height="50" fill="#30F030" fill-opacity="0.4" /><rect x="2073.9736111111115" y="100" width="7.822280092592593" height="50" fill="#30F030" fill-opacity="0.4" /><rect x="2081.795891203704" y="100" width="0.2623263888888889" height="50" fill="#30F030" fill-opacity="0.4" /><rect x="2082.058217592593" y="100" width="15.288078703703704" height="50" fill="#30F030" fill-opacity="0.4" /><rect x="2097.3462962962967" y="100" width="0.016724537037037038" height="50" fill="#30F030" fill-opacity="0.4" /><rect x="2097.3630208333334" y="100" width="14.5890625" height="50" fill="#30F030" fill-opacity="0.4" /><rect x="2111.9520833333336" y="100" width="0.2697337962962963" height="50" fill="#30F030" fill-opacity="0.4" /><rect x="2112.22181712963" y="100" width="0.061168981481481484" height="50" fill="#30F030" fill-opacity="0.4" /><rect x="2112.2829861111113" y="100" width="3.3361111111111112" height="50" fill="#30F030" fill-opacity="0.4" /><rect x="2115.619097222222" y="100" width="0.31961805555555556" height="50" fill="#30F030" fill-opacity="0.4" /><rect x="2115.938715277778" y="100" width="0.635011574074074" height="50" fill="#30F030" fill-opacity="0.4" /><rect x="2116.573726851852" y="100" width="3.002835648148148" height="50" fill="#30F030" fill-opacity="0.4" /><rect x="2119.5765625000004" y="100" width="1.0000578703703704" height="50" fill="#30F030" fill-opacity="0.4" /><rect x="2120.5766203703706" y="100" width="0.07013888888888889" height="50" fill="#30F030" fill-opacity="0.4" /><rect x="2120.6467592592594" y="100" width="0.06226851851851852" height="50" fill="#30F030" fill-opacity="0.4" /><rect x="2120.709027777778" y="100" width="0.2527199074074074" height="50" fill="#30F030" fill-opacity="0.4" /><rect x="2120.9617476851854" y="100" width="0.03090277777777778" height="50" fill="#30F030" fill-opacity="0.4" /><rect x="2120.992650462963" y="100" width="0.2807291666666667" height="50" fill="#30F030" fill-opacity="0.4" /><rect x="2121.2733796296297" y="100" width="0.033101851851851855" height="50" fill="#30F030" fill-opacity="0.4" /><rect x="2121.3064814814816" y="100" width="0.6200231481481482" height="50" fill="#30F030" fill-opacity="0.4" /><rect x="2121.9265046296296" y="100" width="0.06024305555555556" height="50" fill="#30F030" fill-opacity="0.4" /><rect x="2121.986747685185" y="100" width="0.07540509259259259" height="50" fill="#30F030" fill-opacity="0.4" /><rect x="2122.0621527777776" y="100" width="0.03923611111111111" height="50" fill="#30F030" fill-opacity="0.4" /><rect x="2122.1013888888892" y="100" width="0.0265625" height="50" fill="#30F030" fill-opacity="0.4" /><rect x="2122.127951388889" y="100" width="0.058101851851851856" height="50" fill="#30F030" fill-opacity="0.4" /><rect x="2122.186053240741" y="100" width="0.27957175925925926" height="50" fill="#30F030" fill-opacity="0.4" /><rect x="2122.465625" y="100" width="2.3041087962962963" height="50" fill="#30F030" fill-opacity="0.4" /><rect x="2124.7697337962964" y="100" width="0.8711805555555556" height="50" fill="#30F030" fill-opacity="0.4" /><rect x="2125.640914351852" y="100" width="0.059201388888888894" height="50" fill="#30F030" fill-opacity="0.4" /><rect x="2125.700115740741" y="100" width="0.05711805555555556" height="50" fill="#30F030" fill-opacity="0.4" /><rect x="2125.7572337962965" y="100" width="8.391782407407408" height="50" fill="#30F030" fill-opacity="0.4" /><rect x="2134.149016203704" y="100" width="2.474826388888889" height="50" fill="#30F030" fill-opacity="0.4" /><rect x="2136.6238425925926" y="100" width="0.22395833333333334" height="50" fill="#30F030" fill-opacity="0.4" /><rect x="2136.847800925926" y="100" width="0.029108796296296296" height="50" fill="#30F030" fill-opacity="0.4" /><rect x="2136.876909722222" y="100" width="0.5302083333333334" height="50" fill="#30F030" fill-opacity="0.4" /><rect x="2137.4071180555557" y="100" width="0.0052662037037037035" height="50" fill="#30F030" fill-opacity="0.4" /><rect x="2137.4123842592594" y="100" width="1.3864583333333333" height="50" fill="#30F030" fill-opacity="0.4" /><rect x="2138.798842592593" y="100" width="0.005671296296296297" height="50" fill="#30F030" fill-opacity="0.4" /><rect x="2138.804513888889" y="100" width="1.4601273148148148" height="50" fill="#30F030" fill-opacity="0.4" /><rect x="2140.264641203704" y="100" width="0.06886574074074074" height="50" fill="#30F030" fill-opacity="0.4" /><rect x="2140.3335069444447" y="100" width="0.048553240740740744" height="50" fill="#30F030" fill-opacity="0.4" /><rect x="2140.3820601851853" y="100" width="0.09311342592592593" height="50" fill="#30F030" fill-opacity="0.4" /><rect x="2140.475173611111" y="100" width="1.4745370370370372" height="50" fill="#30F030" fill-opacity="0.4" /><rect x="2151.786747685185" y="100" width="1.420601851851852" height="50" fill="#30F030" fill-opacity="0.4" /><rect x="2153.2073495370373" y="100" width="0.1851851851851852" height="50" fill="#30F030" fill-opacity="0.4" /><rect x="2153.392534722222" y="100" width="0.13472222222222222" height="50" fill="#30F030" fill-opacity="0.4" /><rect x="2153.5272569444446" y="100" width="10.423842592592592" height="50" fill="#30F030" fill-opacity="0.4" /><rect x="3499.8322916666666" y="100" width="0.8360532407407407" height="50" fill="#30F030" fill-opacity="0.4" /><rect x="3500.6683449074076" y="100" width="5.978298611111112" height="50" fill="#30F030" fill-opacity="0.4" /><rect x="3506.6466435185184" y="100" width="1.036689814814815" height="50" fill="#30F030" fill-opacity="0.4" /><rect x="3512.6121527777777" y="100" width="3.0611111111111113" height="50" fill="#30F030" fill-opacity="0.4" /><rect x="2117.6315393518516" y="50" width="5127.262384259259" height="20" fill="#30F030" /><rect x="2063.688425925926" y="70" width="7.709490740741" height="30" fill="#3030F0" /><rect x="2074.5052662037037" y="70" width="10.012268518519" height="30" fill="#3030F0" /><rect x="2087.8649305555555" y="70" width="14.317650462963" height="30" fill="#3030F0" /><rect x="2106.579108796296" y="70" width="5.697916666667" height="30" fill="#3030F0" /><rect x="2116.7946759259257" y="70" width="1.002141203704" height="30" fill="#3030F0" /><rect x="2121.0310763888892" y="70" width="1.928587962963" height="30" fill="#3030F0" /><rect x="2134.999074074074" y="70" width="6.116956018519" height="30" fill="#3030F0" /><rect x="2153.470138888889" y="70" width="3.245717592593" height="30" fill="#3030F0" /><rect x="3506.527893518519" y="70" width="1.021527777778" height="30" fill="#3030F0" /></svg>
